<svg width="44" height="44" viewBox="0 0 44 44" fill="none" xmlns="http://www.w3.org/2000/svg">
<path d="M40.3485 27.2422C40.9621 26.5573 41.3359 25.6532 41.3359 24.6641C41.3359 22.532 39.6009 20.7969 37.4688 20.7969H29.963C30.7063 18.541 31.0234 15.5478 31.0234 14.2648V12.9766C31.0234 10.1337 28.71 7.82031 25.8672 7.82031H24.5781C23.9869 7.82031 23.4713 8.2225 23.3277 8.79656L22.6256 11.6059C21.6416 15.5401 18.5178 19.8808 15.2848 20.6697C14.7185 19.2363 13.3203 18.2188 11.6875 18.2188H3.95312C3.24156 18.2188 2.66406 18.7963 2.66406 19.5078V42.7109C2.66406 43.4225 3.24156 44 3.95312 44H11.6875C13.2249 44 14.5552 43.0985 15.1783 41.7957L19.6075 43.2721C21.0555 43.7551 22.5646 44 24.0917 44H34.8906C37.0227 44 38.7578 42.2649 38.7578 40.1328C38.7578 39.6301 38.6616 39.1488 38.4863 38.708C40.1259 38.2602 41.3359 36.7572 41.3359 34.9766C41.3359 33.9874 40.9621 33.0834 40.3485 32.3984C40.9621 31.7135 41.3359 30.8095 41.3359 29.8203C41.3359 28.8312 40.9621 27.9271 40.3485 27.2422ZM12.9766 40.1328C12.9766 40.8435 12.3982 41.4219 11.6875 41.4219H5.24219V20.7969H11.6875C12.3982 20.7969 12.9766 21.3752 12.9766 22.0859V40.1328ZM34.8906 28.5312H37.4688C38.1795 28.5312 38.7578 29.1096 38.7578 29.8203C38.7578 30.531 38.1795 31.1094 37.4688 31.1094H34.8906C34.1791 31.1094 33.6016 31.6869 33.6016 32.3984C33.6016 33.11 34.1791 33.6875 34.8906 33.6875H37.4688C38.1795 33.6875 38.7578 34.2659 38.7578 34.9766C38.7578 35.6873 38.1795 36.2656 37.4688 36.2656H34.8906C34.1791 36.2656 33.6016 36.8431 33.6016 37.5547C33.6016 38.2663 34.1791 38.8438 34.8906 38.8438C35.6013 38.8438 36.1797 39.4221 36.1797 40.1328C36.1797 40.8435 35.6013 41.4219 34.8906 41.4219H24.0917C22.8422 41.4219 21.6073 41.2216 20.4222 40.8263L15.5547 39.2038V23.253C17.5768 22.8688 19.5559 21.5884 21.3426 19.4923C23.0871 17.4453 24.5016 14.7314 25.1264 12.2315L25.5845 10.3984H25.8672C27.2886 10.3984 28.4453 11.5552 28.4453 12.9766V14.2648C28.4453 15.9955 27.9039 19.3153 27.2113 20.7969H24.5781C23.8666 20.7969 23.2891 21.3744 23.2891 22.0859C23.2891 22.7975 23.8666 23.375 24.5781 23.375H37.4688C38.1795 23.375 38.7578 23.9534 38.7578 24.6641C38.7578 25.3748 38.1795 25.9531 37.4688 25.9531H34.8906C34.1791 25.9531 33.6016 26.5306 33.6016 27.2422C33.6016 27.9538 34.1791 28.5312 34.8906 28.5312Z" fill="#D9D9D9"/>
<path d="M9.10938 38.8438C9.8213 38.8438 10.3984 38.2666 10.3984 37.5547C10.3984 36.8428 9.8213 36.2656 9.10938 36.2656C8.39745 36.2656 7.82031 36.8428 7.82031 37.5547C7.82031 38.2666 8.39745 38.8438 9.10938 38.8438Z" fill="#D9D9D9"/>
<path d="M26.9811 0C26.2934 0 25.7358 0.548414 25.7358 1.22487V3.75626C25.7358 4.43272 26.2934 4.98113 26.9811 4.98113C27.6689 4.98113 28.2264 4.43272 28.2264 3.75626V1.22487C28.2264 0.548414 27.6689 0 26.9811 0Z" fill="#D9D9D9"/>
<path d="M22.1306 5.8113L20.7551 4.43579C20.3753 4.05595 19.7595 4.05595 19.3796 4.43579C18.9998 4.81564 18.9998 5.43145 19.3796 5.8113L20.7551 7.1868C21.1349 7.56659 21.7508 7.56665 22.1306 7.1868C22.5104 6.80696 22.5104 6.19115 22.1306 5.8113Z" fill="#D9D9D9"/>
<path d="M35.4133 4.4358C35.0335 4.05595 34.4177 4.05595 34.0378 4.4358L32.6623 5.81124C32.2825 6.19109 32.2825 6.8069 32.6623 7.18675C33.0421 7.56659 33.658 7.56666 34.0378 7.18681L35.4133 5.8113C35.7932 5.43146 35.7932 4.81564 35.4133 4.4358Z" fill="#D9D9D9"/>
</svg>
