<svg width="31" height="25" viewBox="0 0 31 25" fill="none" xmlns="http://www.w3.org/2000/svg">
<path d="M16.5526 17.1332C16.7895 16.841 16.8158 16.6019 16.9211 16.3629C18.8947 11.1831 20.8421 5.97669 22.8158 0.796892C22.8421 0.69064 22.8947 0.610949 22.9211 0.504697C23.0526 0.132814 23.2895 0 23.6842 0C25.1579 0.0265631 26.6316 0 28.1053 0C28.6842 0 29.2895 0 29.8684 0C30.3947 0 30.6053 0.132812 30.6053 0.478132C30.6316 0.823452 30.3947 0.98283 29.8421 1.00939C29.5 1.00939 29.1579 1.00939 28.8421 1.00939C28.6316 1.00939 28.5263 1.08908 28.5526 1.30159C28.5526 1.4344 28.5526 1.56722 28.5526 1.67347C28.5526 8.68612 28.5526 15.6722 28.5526 22.6849C28.5526 22.738 28.5526 22.7646 28.5526 22.8177C28.5526 23.4552 28.5 23.4286 29.1316 23.4286C29.5263 23.4286 29.9211 23.4286 30.3421 23.4286C30.7895 23.4286 31 23.6146 31 23.9333C31 24.2521 30.7895 24.4115 30.3158 24.4115C28.6842 24.4115 27.0789 24.4115 25.4474 24.4115C24.3421 24.4115 23.2105 24.4115 22.1053 24.4115C21.9474 24.4115 21.8158 24.4115 21.6579 24.4115C21.3158 24.3583 21.1053 24.1458 21.1579 23.8802C21.1842 23.588 21.3947 23.4286 21.6842 23.4286C22.0526 23.4286 22.4474 23.4286 22.8158 23.4286C23.0526 23.4286 23.1579 23.3489 23.1579 23.1099C23.1579 23.0036 23.1579 22.8974 23.1579 22.7911C23.1579 16.4691 23.1579 10.1471 23.1579 3.82508C23.1579 3.6657 23.1579 3.53289 23.1316 3.37351C22.8947 3.42664 22.9211 3.61258 22.8684 3.77196C20.3158 10.5721 17.7632 17.3722 15.1842 24.1724C15.1053 24.3583 15.0526 24.5443 14.9737 24.7037C14.7632 25.0755 14.4211 25.1021 14.1579 24.7568C14.0263 24.5708 13.9474 24.3583 13.8421 24.1458C10.7105 17.3988 7.57895 10.6518 4.44737 3.90477C4.36842 3.71883 4.31579 3.50632 4.13158 3.37351C3.94737 3.4532 4.02632 3.61258 4.02632 3.74539C4.02632 10.1471 4.02632 16.5222 4.02632 22.9239C4.02632 23.4552 4.02632 23.4818 4.57895 23.4818C5.26316 23.4818 5.92105 23.4818 6.60526 23.4818C6.73684 23.4818 6.86842 23.4552 6.97368 23.5083C7.23684 23.5614 7.36842 23.7474 7.36842 24.013C7.36842 24.2521 7.21053 24.4115 6.97368 24.4646C6.8421 24.4912 6.71053 24.4911 6.60526 24.4911C4.6579 24.4911 2.73684 24.4911 0.789474 24.4911C0.68421 24.4911 0.578948 24.4911 0.473685 24.4911C0.157896 24.438 0 24.2521 0 23.9865C0 23.7208 0.184213 23.5349 0.500002 23.5083C0.605265 23.5083 0.710528 23.5083 0.815791 23.5083C1.31579 23.5083 1.81579 23.5083 2.34211 23.5083C2.94737 23.5083 2.94737 23.588 2.94737 22.8974C2.94737 15.8316 2.94737 8.76581 2.94737 1.70003C2.94737 1.64691 2.94737 1.62035 2.94737 1.56722C2.94737 1.08908 2.94737 1.08908 2.44737 1.08908C2.07895 1.08908 1.73684 1.08908 1.36842 1.08908C1.23684 1.08908 1.10526 1.08908 1 1.08908C0.710527 1.03596 0.526318 0.903141 0.500002 0.610947C0.473687 0.345317 0.710526 0.132814 1.05263 0.106251C1.18421 0.106251 1.31579 0.106251 1.42105 0.106251C3.55263 0.106251 5.6579 0.132812 7.78947 0.079686C8.39474 0.079686 8.71053 0.265628 8.94737 0.823453C11.1842 5.68449 13.4211 10.519 15.6842 15.3535C15.9474 15.8316 16.2368 16.4425 16.5526 17.1332ZM27.5 12.1924C27.5 10.8643 27.5 9.56271 27.5 8.23455C27.5 6.02982 27.5 3.82508 27.5 1.62034C27.5 0.956268 27.6053 0.956268 26.8684 0.956268C26.2105 0.956268 25.5526 0.956268 24.921 0.956268C24.1053 0.956268 24.2105 0.903141 24.2105 1.67347C24.2105 8.68612 24.2105 15.6722 24.2105 22.6849C24.2105 22.7911 24.2105 22.8974 24.2105 23.0036C24.1842 23.3224 24.3421 23.4021 24.6316 23.4021C25.4211 23.3755 26.1842 23.4021 26.9737 23.4021C27.5263 23.4021 27.5263 23.4021 27.5263 22.8442C27.5263 22.738 27.5263 22.6317 27.5263 22.5255C27.5 19.0723 27.5 15.6456 27.5 12.1924ZM4.28947 0.956268C5.1579 2.84225 6 4.64853 6.8421 6.45482C7.68421 8.28767 8.52631 10.094 9.39474 11.9268C10.2368 13.7331 11.0789 15.5394 11.9211 17.3457C12.7632 19.152 13.5789 20.9583 14.5 22.8708C15 21.5161 15.4474 20.2942 15.9211 19.0988C16.0526 18.727 16.0526 18.4348 15.8684 18.0895C13.3947 12.7768 10.9211 7.43766 8.44737 2.12505C8.26316 1.75316 8.21053 1.24846 7.86842 1.03596C7.52632 0.823454 7.05263 0.982833 6.63158 0.982833C5.86842 0.95627 5.13158 0.956268 4.28947 0.956268Z" fill="white"/>
</svg>
